<svg width="24" height="24" viewBox="0 0 24 24" fill="none" xmlns="http://www.w3.org/2000/svg">
<path d="M13.8617 12L17.6114 8.25027C18.1295 7.73216 18.1295 6.89791 17.6114 6.38858C17.0933 5.87925 16.2591 5.87047 15.7497 6.38858L12 10.1383L8.25027 6.38858C7.73216 5.87047 6.89791 5.87047 6.38858 6.38858C5.87925 6.9067 5.87047 7.74094 6.38858 8.25027L10.1383 12L6.38858 15.7497C5.87047 16.2678 5.87047 17.1021 6.38858 17.6114C6.9067 18.1295 7.74094 18.1295 8.25027 17.6114L12 13.8617L15.7497 17.6114C16.0044 17.8661 16.3469 17.9978 16.6806 17.9978C17.0143 17.9978 17.3568 17.8661 17.6114 17.6114C18.1295 17.0933 18.1295 16.2591 17.6114 15.7497L13.8617 12Z" fill="#C46F72"/>
</svg>
