<svg width="40" height="40" viewBox="0 0 40 40" fill="none" xmlns="http://www.w3.org/2000/svg">
<path d="M20 40C31.0457 40 40 31.0457 40 20C40 8.9543 31.0457 0 20 0C8.9543 0 0 8.9543 0 20C0 31.0457 8.9543 40 20 40Z" fill="#F0F0F0"/>
<path d="M4.13439 7.82324C2.56329 9.86699 1.37892 12.2232 0.689075 14.7826H11.0938L4.13439 7.82324Z" fill="#0052B4"/>
<path d="M39.311 14.7826C38.6211 12.2232 37.4368 9.86777 35.8657 7.82324L28.9071 14.7826H39.311Z" fill="#0052B4"/>
<path d="M0.689075 25.217C1.37892 27.7764 2.56329 30.1319 4.13439 32.1764L11.093 25.217H0.689075Z" fill="#0052B4"/>
<path d="M32.1766 4.13428C30.1328 2.56318 27.7766 1.37881 25.2172 0.688965V11.0937L32.1766 4.13428Z" fill="#0052B4"/>
<path d="M7.82353 35.8656C9.86728 37.4367 12.2235 38.621 14.7829 39.3109V28.907L7.82353 35.8656Z" fill="#0052B4"/>
<path d="M14.7828 0.688965C12.2234 1.37881 9.86795 2.56318 7.8242 4.13428L14.7828 11.0929V0.688965Z" fill="#0052B4"/>
<path d="M25.2173 39.3109C27.7767 38.621 30.1322 37.4367 32.1759 35.8656L25.2166 28.907L25.2173 39.3109Z" fill="#0052B4"/>
<path d="M28.9071 25.217L35.8664 32.1764C37.4375 30.1327 38.6219 27.7764 39.3118 25.217H28.9071Z" fill="#0052B4"/>
<path d="M39.8305 17.3914H22.6086V0.169531C21.7547 0.0578125 20.8844 0 20 0C19.1156 0 18.2453 0.0578125 17.3914 0.169531V17.3914H0.169531C0.0578125 18.2453 0 19.1156 0 20C0 20.8844 0.0578125 21.7547 0.169531 22.6086H17.3914V39.8305C18.2453 39.9414 19.1156 40 20 40C20.8844 40 21.7547 39.9422 22.6086 39.8305V22.6086H39.8305C39.9414 21.7547 40 20.8844 40 20C40 19.1156 39.9422 18.2453 39.8305 17.3914Z" fill="#D80027"/>
<path d="M25.2171 25.2173L34.1421 34.1423C34.5522 33.7321 34.9444 33.3032 35.3178 32.8587L27.6772 25.2181L25.2171 25.2173Z" fill="#D80027"/>
<path d="M14.7828 25.2173L5.85782 34.1423C6.26798 34.5524 6.69689 34.9446 7.14142 35.3181L14.782 27.6774L14.7828 25.2173Z" fill="#D80027"/>
<path d="M14.7827 14.7829L5.85773 5.85791C5.44758 6.26807 5.05539 6.69697 4.68195 7.1415L12.3226 14.7821L14.7827 14.7829Z" fill="#D80027"/>
<path d="M25.2171 14.7829L34.1421 5.85791C33.7319 5.44775 33.303 5.05557 32.8585 4.68213L25.2178 12.3228V14.7829H25.2171Z" fill="#D80027"/>
<path d="M39 20C39 30.4934 30.4934 39 20 39C9.50659 39 1 30.4934 1 20C1 9.50659 9.50659 1 20 1C30.4934 1 39 9.50659 39 20Z" stroke="white" stroke-width="2"/>
</svg>
