<svg width="25" height="24" viewBox="0 0 25 24" fill="none" xmlns="http://www.w3.org/2000/svg">
<g clip-path="url(#clip0)">
<path d="M8.18043 17.3601V23.0001L11.0006 20.1801L8.18043 17.3601ZM12.0006 21.1801L9.18048 24.0001H14.8208L12.0006 21.1801ZM9.18048 16.3701L12.0006 19.1901L14.8208 16.3701H9.18048ZM12.9907 20.1801L15.8108 23.0001V17.3601L12.9907 20.1801ZM23.9513 11.7301L20.6411 3.74006C20.5711 3.57006 20.4311 3.43006 20.2611 3.36006L12.2706 0.0500586C12.1006 -0.0199414 11.9006 -0.0199414 11.7306 0.0500586L3.7402 3.36006C3.57019 3.43006 3.43018 3.57006 3.36017 3.74006L0.0500015 11.7301C-0.0400032 11.9501 -0.0200021 12.1901 0.120005 12.3901C0.260013 12.5901 0.470024 12.7001 0.700036 12.7001H2.26012V23.3001C2.26012 23.6901 2.57013 24.0001 2.96015 24.0001H6.78035V15.6701C6.78035 15.2801 7.09037 14.9701 7.48039 14.9701H16.5209C16.9109 14.9701 17.2209 15.2801 17.2209 15.6701V24.0001H21.0411C21.4311 24.0001 21.7411 23.6901 21.7411 23.3001V12.7001H23.3012C23.5312 12.7001 23.7512 12.5801 23.8813 12.3901C24.0113 12.2001 24.0413 11.9501 23.9513 11.7301ZM14.9608 9.74006C14.9608 10.1301 14.6508 10.4401 14.2607 10.4401H9.74051C9.35049 10.4401 9.04047 10.1301 9.04047 9.74006V5.22006C9.04047 4.83006 9.35049 4.52006 9.74051 4.52006H14.2607C14.6508 4.52006 14.9608 4.83006 14.9608 5.22006V9.74006ZM10.4405 5.92006H13.5507V9.03006H10.4405V5.92006Z" fill="#C46F72"/>
</g>
<defs>
<clipPath id="clip0">
<rect width="24.0013" height="24" fill="white"/>
</clipPath>
</defs>
</svg>
