<svg width="25" height="24" viewBox="0 0 25 24" fill="none" xmlns="http://www.w3.org/2000/svg">
<path d="M6.42615 17.7848C4.80888 16.2515 3.81977 14.2647 3.59007 12.1214C2.73065 13.1703 2.26461 14.4566 2.26656 15.8066C2.26813 16.6847 2.47282 17.5574 2.86073 18.3469L2.06069 20.5938C1.92319 20.9802 2.02358 21.3994 2.32282 21.6886C2.53337 21.8918 2.81112 22 3.09668 22C3.217 22 3.33849 21.9808 3.45686 21.9416L5.78549 21.1695C6.60311 21.5438 7.50784 21.7414 8.41766 21.7429C9.8439 21.7448 11.2014 21.2777 12.2991 20.417C10.0916 20.2243 8.03248 19.3071 6.42615 17.7848ZM21.9293 17.9981L20.7675 14.7356C21.3273 13.631 21.6234 12.4023 21.6254 11.1661C21.6289 9.01685 20.7671 6.98444 19.1991 5.44363C17.6306 3.90245 15.5407 3.03498 13.314 3.00105C11.0053 2.96598 8.83486 3.81348 7.20314 5.38784C5.57142 6.96257 4.69325 9.05681 4.72958 11.2853C4.76474 13.4342 5.66361 15.4511 7.26057 16.9648C8.85401 18.475 10.9545 19.3067 13.1769 19.3063C13.1812 19.3063 13.1859 19.3063 13.1902 19.3063C14.4711 19.3044 15.7442 19.0187 16.8888 18.4784L20.2694 19.5996C20.4104 19.6464 20.5546 19.669 20.6976 19.669C21.037 19.669 21.3671 19.5404 21.6175 19.2988C21.973 18.9557 22.0926 18.4573 21.9293 17.9981ZM13.9929 13.9827H9.63061C9.30168 13.9827 9.03526 13.7256 9.03526 13.4082C9.03526 13.0907 9.30168 12.8336 9.63061 12.8336H13.9929C14.3219 12.8336 14.5883 13.0907 14.5883 13.4082C14.5883 13.7256 14.3219 13.9827 13.9929 13.9827ZM16.7232 11.62H9.63061C9.30168 11.62 9.03526 11.3629 9.03526 11.0455C9.03526 10.7281 9.30168 10.4709 9.63061 10.4709H16.7232C17.0521 10.4709 17.3185 10.7281 17.3185 11.0455C17.3185 11.3629 17.0521 11.62 16.7232 11.62ZM16.7232 9.25737H9.63061C9.30168 9.25737 9.03526 9.00026 9.03526 8.68282C9.03526 8.36539 9.30168 8.10827 9.63061 8.10827H16.7232C17.0521 8.10827 17.3185 8.36539 17.3185 8.68282C17.3185 8.99988 17.0521 9.25737 16.7232 9.25737Z" fill="#C46F72"/>
</svg>
