<svg width="25" height="24" viewBox="0 0 25 24" fill="none" xmlns="http://www.w3.org/2000/svg">
<path d="M21.3067 19.4062H19.6399V14.1504H21.3067C21.5474 14.1504 21.771 14.0296 21.8974 13.831C22.0238 13.6324 22.0354 13.3845 21.928 13.1756L20.7705 10.9295C20.6529 10.7013 20.4126 10.5571 20.1492 10.5571H3.85237C3.58939 10.5571 3.34864 10.7013 3.23104 10.9295L2.07356 13.1756C1.96569 13.3845 1.97726 13.6324 2.10412 13.831C2.23098 14.0296 2.45414 14.1504 2.6949 14.1504H4.36166V19.4062H2.6949C2.31154 19.4062 2.00041 19.7081 2.00041 20.0801V22.3262C2.00041 22.6981 2.31154 23 2.6949 23H21.3067C21.69 23 22.0012 22.6981 22.0012 22.3262V20.0801C22.0012 19.7081 21.6905 19.4062 21.3067 19.4062ZM10.4731 19.4062H7.8341V14.1504H10.4731V19.4062ZM16.1679 19.4062H13.5289V14.1504H16.1679V19.4062ZM12.6955 6.13992V4.7168H15.7049C16.0883 4.7168 16.3994 4.41492 16.3994 4.04297V1.34766C16.3994 0.975703 16.0883 0.673828 15.7049 0.673828H12.6955C12.6955 0.301875 12.3844 0 12.001 0C11.6177 0 11.3065 0.301875 11.3065 0.673828V6.13992L6.24557 9.20898H17.7565L12.6955 6.13992Z" fill="#C46F72"/>
</svg>
