<svg width="25" height="24" viewBox="0 0 25 24" fill="none" xmlns="http://www.w3.org/2000/svg">
<path d="M22.4074 10.574L13.4299 1.59608C13.0448 1.21092 12.5405 1 11.9994 1C11.4584 1 10.954 1.21092 10.5689 1.59608L1.60064 10.5648L1.59147 10.574C0.802845 11.3627 0.802845 12.6465 1.59147 13.4352C1.9491 13.7928 2.42594 14.0038 2.93946 14.0221C2.9578 14.0221 2.98531 14.0221 3.00365 14.0221H3.36128V20.6248C3.36128 21.9362 4.425 23 5.73631 23H9.24842C9.60605 23 9.89032 22.7157 9.89032 22.3581V17.1767C9.89032 16.5807 10.3763 16.0946 10.9724 16.0946H13.0448C13.6409 16.0946 14.1269 16.5807 14.1269 17.1767V22.3581C14.1269 22.7157 14.4111 23 14.7688 23H18.2809C19.5922 23 20.6559 21.9362 20.6559 20.6248V14.0221H20.986C21.5271 14.0221 22.0314 13.8112 22.4166 13.426C23.196 12.6465 23.196 11.3627 22.4074 10.574Z" fill="#C46F72"/>
</svg>
