<svg width="24" height="24" viewBox="0 0 24 24" fill="none"
    xmlns="http://www.w3.org/2000/svg">
    <path d="M22.98 11.5601C22.98 12.3901 22.31 13.0601 21.48 13.0601H6.12L9.62 16.5601C10.21 17.1501 10.21 18.1001 9.62 18.6801C9.33 18.9701 8.94 19.1201 8.56 19.1201C8.18 19.1201 7.79 18.9701 7.5 18.6801L1.44 12.6201C1.3 12.4801 1.19 12.3101 1.11 12.1301C1.11 12.1201 1.11 12.1101 1.1 12.1101C1.04 11.9301 1 11.7501 1 11.5601C1 11.3701 1.04 11.1801 1.11 11.0101C1.11 11.0001 1.11 10.9901 1.12 10.9901C1.19 10.8001 1.3 10.6301 1.44 10.4901L7.5 4.44006C8.09 3.85006 9.04 3.85006 9.62 4.44006C10.21 5.03006 10.21 5.98006 9.62 6.56006L6.12 10.0601H21.48C22.31 10.0601 22.98 10.7301 22.98 11.5601ZM13.8 7.06006H21.49C22.32 7.06006 22.99 6.39006 22.99 5.56006C22.99 4.73006 22.32 4.06006 21.49 4.06006H13.8C12.97 4.06006 12.3 4.73006 12.3 5.56006C12.3 6.39006 12.97 7.06006 13.8 7.06006ZM21.48 16.0601H13.8C12.97 16.0601 12.3 16.7301 12.3 17.5601C12.3 18.3901 12.97 19.0601 13.8 19.0601H21.49C22.32 19.0601 22.99 18.3901 22.99 17.5601C22.99 16.7301 22.31 16.0601 21.48 16.0601Z" fill="#C46F72"/>
</svg>
