<svg width="25" height="24" viewBox="0 0 25 24" fill="none" xmlns="http://www.w3.org/2000/svg">
<g clip-path="url(#clip0)">
<path d="M8.00042 7.86C12.5807 7.86 16.0008 6.05 16.0008 4.43C16.0008 2.81 12.5807 1 8.00042 1C3.42018 1 0 2.81 0 4.43C0 6.05 3.42018 7.86 8.00042 7.86ZM8.00042 21.57C8.67045 21.57 9.31049 21.53 9.92052 21.46C9.40049 20.8 8.98047 20.06 8.66045 19.27C8.44044 19.28 8.22043 19.29 8.00042 19.29C5.38028 19.29 2.91015 18.77 1.02005 17.83C0.650034 17.64 0.310016 17.45 0 17.23V18.14C0 19.76 3.42018 21.57 8.00042 21.57ZM8.00042 17C8.02042 17 8.05042 17 8.07042 17C8.02042 16.62 8.00042 16.24 8.00042 15.86C8.00042 15.47 8.02042 15.09 8.07042 14.72C8.05042 14.72 8.02042 14.72 8.00042 14.72C5.38028 14.72 2.91015 14.2 1.02005 13.26C0.650034 13.07 0.310016 12.88 0 12.66V13.57C0 15.19 3.42018 17 8.00042 17ZM8.00042 12.43C8.23043 12.43 8.45044 12.43 8.67045 12.42C9.02047 11.55 9.5105 10.75 10.1005 10.03C9.42049 10.1 8.71046 10.14 8.00042 10.14C5.38028 10.14 2.91015 9.62 1.02005 8.68C0.650034 8.5 0.310016 8.3 0 8.09V9C0 10.62 3.42018 12.43 8.00042 12.43ZM11.4306 12.07C10.9406 12.81 10.5806 13.66 10.4105 14.57C10.3305 14.99 10.2905 15.42 10.2905 15.86C10.2905 16.19 10.3105 16.52 10.3605 16.84C10.4705 17.62 10.7206 18.37 11.0706 19.04C11.4406 19.75 11.9406 20.39 12.5207 20.92C13.7407 22.03 15.3608 22.71 17.1409 22.71C20.9211 22.71 24.0013 19.63 24.0013 15.85C24.0013 12.07 20.9211 9 17.1409 9C16.7509 9 16.3709 9.03 15.9908 9.1C14.0907 9.42 12.4607 10.52 11.4306 12.07Z" fill="#C46F72"/>
</g>
<defs>
<clipPath id="clip0">
<rect width="24.0013" height="24" fill="white"/>
</clipPath>
</defs>
</svg>
