<svg width="16" height="17" viewBox="0 0 16 17" fill="none" xmlns="http://www.w3.org/2000/svg">
<g clip-path="url(#clip0)">
<path d="M8 0.5C3.59 0.5 0 4.09 0 8.5C0 12.91 3.59 16.5 8 16.5C12.41 16.5 16 12.91 16 8.5C16 4.09 12.41 0.5 8 0.5ZM8 13.17C7.63 13.17 7.33 12.87 7.33 12.5C7.33 12.13 7.63 11.83 8 11.83C8.37 11.83 8.67 12.13 8.67 12.5C8.67 12.87 8.37 13.17 8 13.17ZM9.06 8.93C8.82 9.04 8.67 9.27 8.67 9.53V9.83C8.67 10.2 8.37 10.5 8 10.5C7.63 10.5 7.33 10.2 7.33 9.83V9.53C7.33 8.75 7.79 8.04 8.49 7.71C9.18 7.4 9.67 6.57 9.67 6.17C9.67 5.25 8.92 4.5 8 4.5C7.08 4.5 6.33 5.25 6.33 6.17C6.33 6.54 6.03 6.84 5.66 6.84C5.29 6.84 5 6.53 5 6.17C5 4.52 6.35 3.17 8 3.17C9.65 3.17 11 4.52 11 6.17C11 7.07 10.22 8.39 9.06 8.93Z" fill="#BDBDBD"/>
</g>
<defs>
<clipPath id="clip0">
<rect width="16" height="16" fill="white" transform="translate(0 0.5)"/>
</clipPath>
</defs>
</svg>
