<svg width="36" height="32" viewBox="0 0 36 32" fill="none" xmlns="http://www.w3.org/2000/svg">
<path d="M33 17.2C33 10.83 28.33 3.71002 18 3.71002C7.56 3.71002 3 10.84 3 17.2C3 23.56 9.71 26.77 18 26.77C26.29 26.77 33 23.57 33 17.2Z" fill="#E0E0E0"/>
<path d="M17.9998 31.85C27.8913 31.85 35.9098 27.8161 35.9098 22.84C35.9098 17.8639 27.8913 13.83 17.9998 13.83C8.10842 13.83 0.0898438 17.8639 0.0898438 22.84C0.0898438 27.8161 8.10842 31.85 17.9998 31.85Z" fill="#E0E0E0"/>
<path d="M18 0C15.91 0 12.77 5.44 13.81 7.25C14.86 9.06 21.13 9.06 22.18 7.25C23.23 5.44 20.1 0 18 0Z" fill="#E0E0E0"/>
<path d="M17.9997 4.53998C16.8597 4.53998 15.1497 7.75998 15.7197 8.82998C16.2897 9.89998 19.7197 9.89998 20.2897 8.82998C20.8597 7.75998 19.1497 4.53998 17.9997 4.53998Z" fill="#BDBDBD"/>
<path d="M15.32 17.28H9C8.45 17.28 8 16.83 8 16.28C8 15.73 8.45 15.28 9 15.28H15.32C15.87 15.28 16.32 15.73 16.32 16.28C16.32 16.83 15.88 17.28 15.32 17.28Z" fill="#BDBDBD"/>
<path d="M26.9997 17.28H20.6797C20.1297 17.28 19.6797 16.83 19.6797 16.28C19.6797 15.73 20.1297 15.28 20.6797 15.28H26.9997C27.5497 15.28 27.9997 15.73 27.9997 16.28C27.9997 16.83 27.5597 17.28 26.9997 17.28Z" fill="#BDBDBD"/>
<path d="M27 23.91H9C8.45 23.91 8 23.46 8 22.91C8 22.36 8.45 21.91 9 21.91H27C27.55 21.91 28 22.36 28 22.91C28 23.46 27.56 23.91 27 23.91Z" fill="#BDBDBD"/>
</svg>
