<svg width="37" height="32" viewBox="0 0 37 32" fill="none" xmlns="http://www.w3.org/2000/svg">
<path d="M33.1802 17.2C33.1802 10.83 28.5102 3.71002 18.1802 3.71002C7.74018 3.71002 3.18018 10.84 3.18018 17.2C3.18018 23.56 9.89018 26.77 18.1802 26.77C26.4702 26.77 33.1802 23.57 33.1802 17.2Z" fill="#E0E0E0"/>
<path d="M18.18 31.85C28.0714 31.85 36.09 27.8161 36.09 22.84C36.09 17.8639 28.0714 13.83 18.18 13.83C8.2886 13.83 0.27002 17.8639 0.27002 22.84C0.27002 27.8161 8.2886 31.85 18.18 31.85Z" fill="#E0E0E0"/>
<path d="M18.1802 0C16.0902 0 12.9502 5.44 13.9902 7.25C15.0302 9.06 21.3102 9.06 22.3602 7.25C23.4102 5.44 20.2702 0 18.1802 0Z" fill="#E0E0E0"/>
<path d="M18.1798 4.53998C17.0398 4.53998 15.3298 7.75998 15.8998 8.82998C16.4698 9.89998 19.8998 9.89998 20.4698 8.82998C21.0398 7.75998 19.3198 4.53998 18.1798 4.53998Z" fill="#BDBDBD"/>
<path d="M23.5204 17.15C21.8404 17.15 20.2204 16.33 19.0804 14.9C18.7404 14.47 18.8104 13.84 19.2404 13.49C19.6704 13.14 20.3004 13.22 20.6504 13.65C21.4204 14.61 22.4404 15.14 23.5304 15.14C24.6204 15.14 25.6404 14.61 26.4104 13.65C26.7504 13.22 27.3804 13.15 27.8204 13.49C28.2504 13.83 28.3204 14.46 27.9804 14.9C26.8204 16.33 25.2004 17.15 23.5204 17.15Z" fill="#BDBDBD"/>
<path d="M12.8402 17.15C11.1602 17.15 9.54023 16.33 8.40023 14.9C8.06023 14.47 8.13023 13.84 8.56023 13.49C8.99023 13.14 9.62023 13.22 9.97023 13.65C10.7402 14.61 11.7602 15.14 12.8502 15.14C13.9402 15.14 14.9602 14.61 15.7302 13.65C16.0702 13.22 16.7002 13.15 17.1402 13.49C17.5702 13.83 17.6402 14.46 17.3002 14.9C16.1402 16.33 14.5202 17.15 12.8402 17.15Z" fill="#BDBDBD"/>
<path d="M27.18 25.44C26.89 25.44 26.59 25.31 26.4 25.06C24.23 22.34 21.31 20.84 18.18 20.84C15.05 20.84 12.13 22.34 9.95997 25.06C9.61997 25.49 8.98997 25.56 8.54997 25.22C8.11997 24.88 8.04997 24.25 8.38997 23.81C10.91 20.65 14.47 18.84 18.17 18.84C21.87 18.84 25.43 20.65 27.95 23.81C28.29 24.24 28.22 24.87 27.79 25.22C27.62 25.37 27.4 25.44 27.18 25.44Z" fill="#BDBDBD"/>
</svg>
