<svg width="37" height="32" viewBox="0 0 37 32" fill="none" xmlns="http://www.w3.org/2000/svg">
<path d="M33.8101 17.2C33.8101 10.83 29.1401 3.71002 18.8101 3.71002C8.37006 3.71002 3.81006 10.84 3.81006 17.2C3.81006 23.56 10.5201 26.77 18.8101 26.77C27.1001 26.77 33.8101 23.57 33.8101 17.2Z" fill="#E0E0E0"/>
<path d="M18.8202 31.85C28.7116 31.85 36.7302 27.8161 36.7302 22.84C36.7302 17.8639 28.7116 13.83 18.8202 13.83C8.92874 13.83 0.910156 17.8639 0.910156 22.84C0.910156 27.8161 8.92874 31.85 18.8202 31.85Z" fill="#E0E0E0"/>
<path d="M18.8203 0C16.7303 0 13.5903 5.44 14.6303 7.25C15.6703 9.06 21.9503 9.06 23.0003 7.25C24.0503 5.44 20.9103 0 18.8203 0Z" fill="#E0E0E0"/>
<path d="M18.82 4.53998C17.68 4.53998 15.97 7.75998 16.54 8.82998C17.11 9.89998 20.54 9.89998 21.11 8.82998C21.68 7.75998 19.96 4.53998 18.82 4.53998Z" fill="#BDBDBD"/>
<path d="M17.1401 17.15C16.8501 17.15 16.5501 17.02 16.3601 16.77C15.5901 15.81 14.5701 15.28 13.4801 15.28C12.3901 15.28 11.3701 15.81 10.6001 16.77C10.2601 17.2 9.63011 17.27 9.19011 16.93C8.76011 16.59 8.69011 15.96 9.03011 15.52C10.1701 14.09 11.7901 13.27 13.4701 13.27C15.1501 13.27 16.7701 14.09 17.9101 15.52C18.2501 15.95 18.1801 16.58 17.7501 16.93C17.5701 17.08 17.3501 17.15 17.1401 17.15Z" fill="#BDBDBD"/>
<path d="M27.8203 17.15C27.5303 17.15 27.2303 17.02 27.0403 16.77C26.2703 15.81 25.2503 15.28 24.1603 15.28C23.0703 15.28 22.0503 15.81 21.2803 16.77C20.9403 17.2 20.3103 17.27 19.8703 16.93C19.4403 16.59 19.3703 15.96 19.7103 15.52C20.8503 14.09 22.4703 13.27 24.1503 13.27C25.8303 13.27 27.4503 14.09 28.5903 15.52C28.9303 15.95 28.8603 16.58 28.4303 16.93C28.2503 17.08 28.0303 17.15 27.8203 17.15Z" fill="#BDBDBD"/>
<path d="M18.8204 26.2C15.1204 26.2 11.5604 24.39 9.04037 21.23C8.70037 20.8 8.77037 20.17 9.20037 19.82C9.63037 19.48 10.2604 19.55 10.6104 19.98C12.7804 22.7 15.7004 24.2 18.8304 24.2C21.9604 24.2 24.8804 22.7 27.0504 19.98C27.3904 19.55 28.0204 19.48 28.4604 19.82C28.8904 20.16 28.9604 20.79 28.6204 21.23C26.0804 24.38 22.5104 26.2 18.8204 26.2Z" fill="#BDBDBD"/>
</svg>
