<svg width="30" height="30" viewBox="0 0 30 30" fill="none" xmlns="http://www.w3.org/2000/svg">
<path d="M15 30C23.2843 30 30 23.2843 30 15C30 6.71573 23.2843 0 15 0C6.71573 0 0 6.71573 0 15C0 23.2843 6.71573 30 15 30Z" fill="#F0F0F0"/>
<path d="M29.0672 20.2172C29.6701 18.5924 30 16.8346 30 15C30 13.1654 29.6701 11.4076 29.0672 9.78281H0.932813C0.329883 11.4076 0 13.1654 0 15C0 16.8346 0.329883 18.5924 0.932813 20.2172L15 21.5215L29.0672 20.2172Z" fill="#0052B4"/>
<path d="M14.9999 30C21.4493 30 26.9478 25.9295 29.0671 20.2172H0.932739C3.05208 25.9295 8.55051 30 14.9999 30Z" fill="#D80027"/>
<path d="M29 15C29 22.732 22.732 29 15 29C7.26801 29 1 22.732 1 15C1 7.26801 7.26801 1 15 1C22.732 1 29 7.26801 29 15Z" stroke="white" stroke-width="2"/>
</svg>
