<svg width="25" height="24" viewBox="0 0 25 24" fill="none" xmlns="http://www.w3.org/2000/svg">
<g clip-path="url(#clip0)">
<rect width="24.0013" height="24" fill="white"/>
<path d="M17.0514 11.7927C17.0514 11.6532 17.0664 11.5601 17.0664 11.4515C17.0664 9.91613 17.0664 8.39623 17.0664 6.86082C17.0664 5.86823 16.4964 5.29439 15.5514 5.29439C13.8563 5.29439 12.1763 5.29439 10.4812 5.29439C9.52122 5.29439 8.6962 4.68953 8.42619 3.79C8.00618 2.47172 8.9362 1.04487 10.2862 1.02936C12.7013 0.998347 15.1164 0.982837 17.5314 1.02936C19.5565 1.07589 21.1915 2.82843 21.2215 4.93768C21.2365 7.07795 21.2215 9.21822 21.2215 11.374C21.2215 11.4981 21.2215 11.6221 21.2215 11.8083C21.6865 11.7152 22.1215 11.6377 22.5566 11.5601C22.6916 11.5291 22.8416 11.4981 22.9766 11.4671C23.4116 11.374 23.7266 11.5136 23.9066 11.8548C24.0716 12.1805 24.0266 12.5372 23.7266 12.8474C23.2316 13.3747 22.7216 13.902 22.2265 14.4138C21.4465 15.2203 20.6665 16.0268 19.8715 16.8487C19.3465 17.3916 18.9715 17.3916 18.4465 16.8487C17.1864 15.546 15.9264 14.2277 14.6514 12.9249C14.4263 12.6923 14.2613 12.4596 14.3213 12.1184C14.3963 11.6377 14.8014 11.374 15.2964 11.4671C15.8664 11.5601 16.4364 11.6842 17.0514 11.7927ZM2.77104 11.6221C2.77104 13.7469 2.75604 15.8872 2.77104 18.0119C2.78604 20.1212 4.40609 21.9047 6.43114 21.9513C8.8462 22.0133 11.2763 21.9823 13.7063 21.9513C14.9814 21.9358 15.8964 20.664 15.6264 19.3767C15.4164 18.3842 14.5614 17.6862 13.5113 17.6707C11.8313 17.6707 10.1512 17.6707 8.47119 17.6707C7.48117 17.6707 6.92615 17.0969 6.92615 16.0733C6.92615 14.5534 6.92615 13.0335 6.92615 11.5136C6.92615 11.4205 6.94115 11.312 6.94115 11.1724C7.52617 11.2809 8.08118 11.3895 8.6362 11.5136C9.08621 11.6066 9.38621 11.4981 9.58122 11.1569C9.77623 10.8002 9.73122 10.459 9.40122 10.1178C8.08118 8.78396 6.77615 7.43466 5.47111 6.08536C5.0511 5.6511 4.64609 5.6511 4.22608 6.08536C2.90605 7.43466 1.60101 8.78396 0.295979 10.1488C-0.0340296 10.49 -0.0790308 10.8467 0.115974 11.1879C0.295979 11.5291 0.595987 11.6221 1.046 11.5291C1.60101 11.4205 2.15603 11.312 2.77104 11.1879C2.77104 11.3895 2.77104 11.4981 2.77104 11.6221Z" fill="#C46F72"/>
</g>
<defs>
<clipPath id="clip0">
<rect width="24.0013" height="24" fill="white"/>
</clipPath>
</defs>
</svg>
