<svg width="16" height="17" viewBox="0 0 16 17" fill="none" xmlns="http://www.w3.org/2000/svg">
<g clip-path="url(#clip0)">
<path d="M11.3702 8.69633C11.3702 8.60327 11.3802 8.54123 11.3802 8.46885C11.3802 7.44522 11.3802 6.43193 11.3802 5.40829C11.3802 4.74655 11.0002 4.36398 10.3702 4.36398C9.24024 4.36398 8.12024 4.36398 6.99024 4.36398C6.35024 4.36398 5.80024 3.96073 5.62024 3.36103C5.34024 2.48215 5.96024 1.53089 6.86024 1.52055C8.47024 1.49987 10.0802 1.48953 11.6902 1.52055C13.0402 1.55157 14.1302 2.71996 14.1502 4.12617C14.1602 5.55305 14.1502 6.97993 14.1502 8.41716C14.1502 8.49987 14.1502 8.58259 14.1502 8.70667C14.4602 8.64463 14.7502 8.59293 15.0402 8.54123C15.1302 8.52055 15.2302 8.49987 15.3202 8.4792C15.6102 8.41716 15.8202 8.51021 15.9402 8.73769C16.0502 8.95482 16.0202 9.19264 15.8202 9.39943C15.4902 9.75098 15.1502 10.1025 14.8202 10.4437C14.3002 10.9814 13.7802 11.5191 13.2502 12.0671C12.9002 12.429 12.6502 12.429 12.3002 12.0671C11.4602 11.1985 10.6202 10.3197 9.77024 9.45113C9.62024 9.29603 9.51024 9.14094 9.55024 8.91346C9.60024 8.59293 9.87024 8.41716 10.2002 8.4792C10.5802 8.54123 10.9602 8.62395 11.3702 8.69633ZM1.85024 8.58259C1.85024 9.99914 1.84024 11.426 1.85024 12.8426C1.86024 14.2488 2.94024 15.4378 4.29024 15.4689C5.90024 15.5102 7.52024 15.4895 9.14024 15.4689C9.99024 15.4585 10.6002 14.6107 10.4202 13.7525C10.2802 13.0907 9.71024 12.6254 9.01024 12.6151C7.89024 12.6151 6.77024 12.6151 5.65024 12.6151C4.99024 12.6151 4.62024 12.2325 4.62024 11.5501C4.62024 10.5368 4.62024 9.52351 4.62024 8.51021C4.62024 8.44818 4.63024 8.3758 4.63024 8.28274C5.02024 8.35512 5.39024 8.4275 5.76024 8.51021C6.06024 8.57225 6.26024 8.49987 6.39024 8.2724C6.52024 8.03459 6.49024 7.80711 6.27024 7.57964C5.39024 6.69042 4.52024 5.79086 3.65024 4.89131C3.37024 4.60179 3.10024 4.60179 2.82024 4.89131C1.94024 5.79086 1.07024 6.69042 0.200244 7.60032C-0.0197561 7.82779 -0.0497561 8.06561 0.0802439 8.29308C0.200244 8.52055 0.400244 8.58259 0.700244 8.52055C1.07024 8.44818 1.44024 8.3758 1.85024 8.29308C1.85024 8.4275 1.85024 8.49987 1.85024 8.58259Z" fill="#BDBDBD"/>
</g>
<defs>
<clipPath id="clip0">
<rect width="16" height="16" fill="white" transform="translate(0 0.5)"/>
</clipPath>
</defs>
</svg>
