<svg width="24" height="20" viewBox="0 0 24 20" fill="none"
    xmlns="http://www.w3.org/2000/svg">
    <path d="M17.5383 6.51188H24V3.48859C24 1.56502 22.447 0 20.5383 0H3.46172C1.55297 0 0 1.56502 0 3.48859V16.5119C0 18.4355 1.55297 20.0005 3.46172 20.0005H20.5387C22.4475 20.0005 24.0005 18.4355 24.0005 16.5119V13.4886H17.5383C15.6295 13.4886 14.0766 11.9236 14.0766 10C14.0766 8.07644 15.6295 6.51188 17.5383 6.51188ZM17.5383 7.90685C16.3931 7.90685 15.4613 8.84596 15.4613 10C15.4613 11.154 16.3931 12.0932 17.5383 12.0932H24V7.90732L17.5383 7.90685ZM18.4617 10.6977H17.5387C17.1562 10.6977 16.8464 10.3855 16.8464 10C16.8464 9.61453 17.1562 9.30228 17.5387 9.30228H18.4617C18.8442 9.30228 19.1541 9.61453 19.1541 10C19.1541 10.3855 18.8438 10.6977 18.4617 10.6977Z" fill="#F9D8D3"/>
</svg>
